<?xml version="1.0" encoding="utf-8"?>
<!-- Generator: Adobe Illustrator 24.1.3, SVG Export Plug-In . SVG Version: 6.00 Build 0)  -->
<svg version="1.1" id="Calque_1" xmlns="http://www.w3.org/2000/svg" xmlns:xlink="http://www.w3.org/1999/xlink" x="0px" y="0px"
	 viewBox="0 0 1920 1080" style="enable-background:new 0 0 1920 1080;" xml:space="preserve">
<style type="text/css">
	.st0{stroke:#000000;stroke-miterlimit:10;}
	.st1{fill:none;stroke:#999999;stroke-miterlimit:10;}
	.st2{fill:#999999;}
</style>
<rect x="-1.54" y="0.5" class="st0" width="1922.04" height="1080"/>
<line class="st1" x1="354.03" y1="259.73" x2="354.03" y2="463.32"/>
<line class="st1" x1="453.13" y1="259.73" x2="503.02" y2="500.4"/>
<line class="st1" x1="354.03" y1="361.53" x2="465.33" y2="318.59"/>
<polyline class="st1" points="503.02,298.16 599.42,268.49 732.9,304.22 "/>
<line class="st1" x1="600.09" y1="500.73" x2="600.09" y2="268.83"/>
<path class="st1" d="M765.93,454.56c1.8-65.84,3.6-131.68,5.39-197.52l63.37,98.42l15.51-37.08l78.87,171.91"/>
<polyline class="st1" points="976.26,257.03 962.11,550.28 1051.09,416.13 "/>
<polyline class="st1" points="1125.92,510.51 1258.96,373.66 1361.2,268.49 "/>
<polyline class="st1" points="1270.76,361.53 1214.91,643.99 1157.61,516.58 1202.1,550.28 "/>
<polyline class="st1" points="1427.26,318.38 1311.98,523.32 1427.26,414.78 1311.98,665.56 "/>
<polyline class="st1" points="519.2,590.73 395.83,665.56 430.21,870.5 492.91,744.44 "/>
<polyline class="st1" points="666.83,590.73 586.61,708.71 695.15,665.56 554.93,857.69 "/>
<polyline class="st1" points="860.31,596.8 759.87,708.71 892,652.75 718.74,846.23 "/>
<circle class="st2" cx="859.97" cy="596.46" r="2.7"/>
<circle class="st2" cx="758.85" cy="709.04" r="2.7"/>
<circle class="st2" cx="892.33" cy="653.09" r="2.7"/>
<circle class="st2" cx="694.81" cy="665.22" r="2.7"/>
<circle class="st2" cx="586.95" cy="709.04" r="2.7"/>
<circle class="st2" cx="667.17" cy="591.07" r="2.7"/>
<circle class="st2" cx="492.57" cy="744.77" r="2.7"/>
<circle class="st2" cx="395.49" cy="665.22" r="2.7"/>
<circle class="st2" cx="519.53" cy="590.4" r="2.7"/>
<circle class="st2" cx="353.7" cy="260.07" r="2.7"/>
<circle class="st2" cx="452.79" cy="260.07" r="2.7"/>
<circle class="st2" cx="465.6" cy="318.72" r="2.7"/>
<circle class="st2" cx="353.7" cy="361.86" r="2.7"/>
<circle class="st2" cx="353.7" cy="463.66" r="2.7"/>
<circle class="st2" cx="503.36" cy="500.73" r="2.7"/>
<circle class="st2" cx="503.36" cy="297.82" r="2.7"/>
<circle class="st2" cx="599.76" cy="268.16" r="2.7"/>
<circle class="st2" cx="599.76" cy="500.73" r="2.7"/>
<circle class="st2" cx="732.56" cy="303.89" r="2.7"/>
<circle class="st2" cx="766.27" cy="454.89" r="2.7"/>
<circle class="st2" cx="771.66" cy="256.7" r="2.7"/>
<circle class="st2" cx="835.03" cy="353.77" r="2.7"/>
<circle class="st2" cx="850.54" cy="318.72" r="2.7"/>
<circle class="st2" cx="928.74" cy="489.95" r="2.7"/>
<circle class="st2" cx="961.62" cy="550.74" r="2.7"/>
<circle class="st2" cx="975.93" cy="256.7" r="2.7"/>
<circle class="st2" cx="1050.76" cy="417.82" r="2.7"/>
<circle class="st2" cx="1125.59" cy="510.17" r="2.7"/>
<circle class="st2" cx="1271.2" cy="361.19" r="2.7"/>
<circle class="st2" cx="1361.53" cy="268.16" r="2.7"/>
<circle class="st2" cx="1214.57" cy="643.65" r="2.7"/>
<circle class="st2" cx="1157.94" cy="516.91" r="2.7"/>
<circle class="st2" cx="1201.76" cy="549.95" r="2.7"/>
<circle class="st2" cx="1312.32" cy="665.22" r="2.7"/>
<circle class="st2" cx="1312.32" cy="523.66" r="2.7"/>
<circle class="st2" cx="1426.93" cy="414.45" r="2.7"/>
<circle class="st2" cx="1426.93" cy="318.72" r="2.7"/>
<circle class="st2" cx="718.27" cy="845.8" r="2.7"/>
<circle class="st2" cx="554.71" cy="857.76" r="2.7"/>
<circle class="st2" cx="430.61" cy="870.14" r="2.7"/>
</svg>
